<?xml version="1.0" encoding="UTF-8"?>
<svg width="130px" height="34px" viewBox="0 0 130 34" version="1.1" xmlns="http://www.w3.org/2000/svg" xmlns:xlink="http://www.w3.org/1999/xlink">
    <title>rr</title>
    <g id="Final" stroke="none" stroke-width="1" fill="none" fill-rule="evenodd">
        <g id="Book-Demo-Class---Web-/-Counselling-AK-2" transform="translate(-114.000000, -60.000000)" fill="#FF6D26">
            <path d="M167.870144,87.6153834 C167.268188,88.682114 166.398185,89.4666667 165.263199,89.4666667 C163.725377,89.4666667 162.253418,87.9709603 162.320813,84.5522028 C162.388207,78.5726393 165.129942,76.4359159 168.070796,75.8666667 L167.870144,87.6153834 Z M148.517482,82.8753855 C148.438922,80.6414887 149.454849,75.8666667 152.025913,75.8666667 C152.727599,75.8666667 153.115044,76.558363 153.115044,77.7141311 C153.038269,80.7967675 150.934997,82.3372034 148.596043,83.8 C148.596043,83.491207 148.517482,83.1841785 148.517482,82.8753855 L148.517482,82.8753855 Z M242.260458,84.9532302 C241.730279,84.9532302 241.276335,85.3946432 241.049363,86.4240455 C240.597151,88.5569804 240.141475,90.7623609 238.098726,90.6882305 C236.813128,90.6882305 236.435419,88.8501326 236.511654,88.4104043 L236.738626,76.8612189 C236.738626,75.6852405 236.05771,74.6558383 234.394403,74.6558383 C233.713486,74.6558383 232.805598,74.8024144 232.805598,75.169697 C232.805598,75.5386644 233.334045,75.6111101 233.25781,77.0836102 L233.107072,83.9962736 C233.107072,87.4517629 230.839084,90.6157848 228.870838,90.5416544 C228.870838,90.5416544 224.485598,91.8658936 227.056794,77.3043167 C227.283766,76.200784 228.191654,74.6558383 226.301375,74.5833926 C223.652212,74.5092622 223.955419,75.5386644 223.57771,76.3473601 C223.57771,76.3473601 222.820559,81.3477952 222.746057,86.5706216 L222.746057,86.7913281 C222.139643,88.5569804 221.233487,90.3209479 219.720917,90.2468174 C218.662292,90.2468174 217.981375,89.5122522 218.055878,87.9673064 L218.28285,72.8918708 C220.93028,72.9643165 223.575977,72.9643165 227.661475,72.9643165 C228.947073,72.9643165 229.551754,68.2570336 228.039184,69.6554032 C224.636336,69.7278489 221.384224,69.7278489 218.359085,69.7278489 L218.435319,65.0946965 C218.435319,63.9187181 217.374961,62.8876311 215.709922,62.8876311 C215.030738,62.8876311 214.12285,63.035892 214.046615,63.4031746 C214.046615,63.7704573 214.576794,63.8445877 214.500559,65.315403 L214.424324,69.6554032 C211.702392,69.5812728 209.886615,69.4330119 209.886615,69.4330119 C208.45028,69.4330119 209.281934,72.7436099 210.870738,72.7436099 C210.870738,72.7436099 212.156336,72.8918708 214.349822,72.8918708 L214.12285,85.613665 C213.592671,87.6724695 212.61028,90.2468174 210.796236,90.1743718 C209.508906,90.1743718 209.508906,88.3362738 209.508906,87.8948608 L209.659643,78.7010016 C209.735878,76.4198058 208.904224,73.6988817 205.575878,73.6988817 C203.079185,73.6247513 201.265141,75.759371 199.827074,78.480295 L199.827074,76.2749145 C199.827074,75.0955666 198.768448,74.0678491 197.105141,74.0678491 C196.425957,74.0678491 195.819544,74.3626861 195.743309,74.87486 C195.743309,75.2438275 195.895778,75.5386644 195.895778,76.4198058 L195.743309,83.9962736 C195.667074,84.2169801 195.592571,84.3635562 195.516337,84.6583932 C195.062392,86.7913281 194.080002,89.9536652 192.037253,89.8812196 C190.82789,89.8812196 190.297711,88.7018717 190.372213,87.6000238 L190.524683,80.4666538 C190.524683,79.2906755 189.466058,78.2595885 187.802751,78.2595885 C187.120102,78.2595885 186.440918,78.5544255 186.440918,79.0682842 C186.440918,79.4355668 186.66789,79.7304038 186.591655,80.6132299 L186.517153,87.2310564 C185.910739,88.6311108 185.004583,89.7329587 183.642751,89.7329587 C181.903209,89.7329587 180.766616,88.188013 180.842851,85.613665 C180.993588,78.5544255 185.53303,76.4198058 189.31532,76.4198058 C189.8455,76.4198058 190.297711,76.5680667 190.751655,76.5680667 C191.281834,76.5680667 191.432572,76.2749145 191.432572,75.464534 C191.432572,74.2144252 190.524683,73.4040448 189.162851,73.3315991 C182.961835,73.2574687 177.062293,77.1560558 176.909823,85.3946432 C176.909823,85.7602411 176.909823,86.1292085 176.986058,86.4964911 C176.381377,88.1155673 175.549723,89.5122522 174.113388,89.5122522 C172.902293,89.5122522 172.448349,88.3362738 172.448349,88.188013 L172.826058,65.2412726 C172.826058,63.1083377 171.843668,62.0789354 170.178628,62.0789354 C169.499444,62.0789354 168.589823,62.2271963 168.515321,62.5927942 C168.515321,62.9617616 169.0455,63.0342072 168.969265,64.5050225 L168.816796,73.185023 C163.294963,73.8471426 158.532015,77.1560558 158.381277,84.6583932 L158.381277,85.6877954 C157.397154,87.6724695 155.732115,89.2915456 152.933947,89.2174152 C150.6469,89.1500239 149.311057,88.0936651 148.579895,86.6717085 L148.624943,86.644752 C153.238887,83.9962736 156.264026,81.2736647 156.338529,77.9647515 C156.414764,75.0231209 154.675222,72.9643165 151.877054,72.890186 C148.018529,72.8177404 143.860262,76.6405123 143.784027,82.8927409 C143.784027,83.8496975 144.010999,85.0998063 144.236238,85.9809476 C144.236238,85.9809476 140.519787,89.0236652 135.569716,90.7522522 C137.605535,81.3562191 139.644818,72.9440991 141.755139,63.1824681 C142.35982,61.2702397 143.040736,60.8288267 142.586792,60.461544 C141.528167,59.5770331 138.426792,59.8718701 137.972848,62.1530659 C136.914223,67.594914 135.327151,74.5092622 134.041553,79.8028495 C131.695597,79.5096973 129.427609,80.318393 128.140279,81.1270887 C125.492849,77.0836102 121.939263,71.3469251 118.988626,66.7862183 C117.855498,65.020566 114.754124,65.6085552 114.071475,66.7862183 C113.771733,67.300077 114.450917,67.2276314 115.433307,68.7708923 C121.182112,77.1560558 125.342112,84.8049693 131.695597,92.7487197 C132.1686,93.3299698 132.809666,93.5506763 133.424743,93.5085567 C133.428209,93.5102415 133.424743,93.5237198 133.428209,93.5254046 C133.757405,93.5304589 134.102195,93.483285 134.102195,93.483285 C136.976597,93.0435567 140.606418,91.498611 145.296596,88.6311108 C146.883668,91.4244805 149.607334,92.7487197 152.632473,92.7487197 C155.960819,92.8228502 158.23054,91.6451871 159.74311,90.0277957 C160.801735,91.8642088 162.692014,92.8952958 164.960003,92.8952958 C166.852014,92.8952958 168.364584,92.0866001 169.499444,91.0571979 C170.254863,92.2331762 171.616696,93.0435567 173.280002,93.0435567 C175.398986,93.0435567 177.062293,92.0124697 178.197153,90.5416544 C179.179544,92.1590458 180.768349,93.1160024 182.961835,93.1901328 C184.853846,93.1901328 186.290181,92.3797523 187.348807,91.2779044 C188.105958,92.4538828 189.466058,93.3350241 191.207332,93.3350241 C193.097611,93.3350241 194.610181,92.5280132 195.745041,91.2779044 C195.745041,93.0435567 197.105141,93.4091545 198.163767,93.4091545 C199.601834,93.4091545 199.601834,92.2331762 199.601834,91.3520349 L199.752571,84.1428497 C200.206515,80.2459473 203.382392,77.0819254 204.820459,77.0819254 C205.804583,77.0819254 205.880818,78.4061646 205.804583,79.8769799 L205.653846,88.8501326 C205.577611,91.3520349 207.166415,93.483285 209.812113,93.5574154 C211.854862,93.5574154 213.443666,92.6004589 214.576794,91.2779044 C215.333945,92.9694263 216.77028,93.7039915 218.586057,93.7039915 C220.703308,93.778122 222.292112,92.6745893 223.503208,91.2779044 C224.411096,92.8952958 225.847431,93.9246981 227.813945,93.9246981 C230.005698,93.9246981 231.670738,92.5280132 232.956335,90.467524 C233.25781,92.4538828 234.770379,93.9988285 237.0401,93.9988285 C241.427072,94.0729589 242.939642,90.6157848 243.923765,87.3793173 C244,87.1586107 244,87.0861651 244,87.0120346 C244,86.0550781 243.090379,84.9532302 242.260458,84.9532302 L242.260458,84.9532302 Z" id="rr"></path>
        </g>
    </g>
</svg>