<?xml version="1.0" encoding="UTF-8"?>
<svg viewBox="0 0 309.12 421.46" xmlns="http://www.w3.org/2000/svg">
 <g transform="matrix(1.1373 0 0 -1.1373 -.14598 384.34)">
  <g transform="translate(-134.4 -23.2) scale(.24)">
   <path d="m834.5 305.41c4.7109-1.5389-0.83203 8.125-0.125 12.543 28.125 14.961 25.043 61.082 58.336 70.836 1.082 12.789 9.0391 18.75 12.5 29.164 16.5-3.3359 24.039 2.7931 37.5 8.3361 2.625 1.082 13.125 1.7889 16.664 4.1639 13.918 9.332 14.957 21.418 25 33.336-8.457 15.414 2.8359 24.789 0 45.832 18.75-2.082 14.168 19.164 33.336 16.668-0.71094 10.414 6.4141 13.039 12.5 16.664-0.875 10.418 4.582 18.5 8.332 29.168 2.082 6 6.457 13.332 8.332 20.832 2.168 8.7109 4.9609 13.5 8.3359 20.836 2.832 6.1641 3.2461 15.539 8.332 25 1.25 2.3711 7.457 6.332 8.332 8.332 1.0039 2.293-0.625 5.8711 0 8.332 1.543 6.125 10.418 28.957 0 45.836-26.832-10.461-41.789 9.1641-62.5 16.664-3.832 4.457 0.125 13.625-4.1641 20.836-1.9609 3.332-10.836 5.082-12.5 8.332-2.7109 5.2891-5.043 23.164-8.3359 29.164-1.207 2.2109-3.75-0.45703-4.1641 4.168-0.46094 5.168 2.1211 12.582 4.1641 20.832 4.3359 17.586 5.625 28.711 20.836 37.5 0.082031 9.8358-7.168 12.25-4.168 25 7.918 1.793 10.457 8.957 20.832 8.3359 1.082 12.207-9.4141 12.793-8.332 25 16.668 6.957 17.082 30.125 45.832 25 14.625 1.125-7.5391 18.457 4.168 16.664-3.125 15.625 15.914 9.0859 16.668 20.836 3.0391 11.375-8.293 8.375-8.3359 16.664-3.0391 11.375 8.293 8.379 8.3359 16.668-1.5859 6.582-7.75 10.125-8.3359 16.668-0.625 6.6641 3.25 7.2891 4.168 12.499 2.332 13.29-0.75 25 4.168 41.66 0.37109 1.26 3.957 0.21997 4.1641 4.17 0.16797 3.21 3.625 4.46 4.168 8.33 1.668 11.63-6.918 21.09 0 29.17-17 24.67-38.664 44.67-54.168 70.83-22.375 5.42-40.164 15.38-70.832 12.5-7.207 0-8.625 4.92-12.5 8.3401-2.8359 2.5-6.918 4.3799-8.332 8.33-11 1.0499-18.211-1.37-29.168 0-8.5 1.09-17.457 7.25-25 8.33-19.082 2.72-36-2.12-54.168 4.17-1.5391 0.54993 0 3.96-4.1641 4.17-1.125 0.039917-3.168-0.42004-4.168 0-3.707 1.46-15.664 4.71-25 8.33-1.7109 0.67004 0.16797 3.96-4.168 4.17-1.125 0.039917-3.1641-0.42004-4.1641 0-2.543 1.0399-3.375 3.8799-4.168 4.1599-6.918 2.5-14.832 2.63-20.832 4.17-1.043 0.25-0.375 3.96-4.168 4.17-9.625 0.5-12.418 0.78992-20.832 4.1599-1.75 0.71008-16.461 3.92-20.836 8.3401-15-10-16.664-33.34-29.164-45.84-10.043 1.72-9.043-7.62-20.836-4.1599-7.332-3.79-7.625-14.59-12.5-20.84-10.043 1.72-9.0391-7.62-20.832-4.1599-12.957-5.1201-16.75-19.37-37.5-16.67 2.668 3.5499 0.875 13.96 4.168 16.67 6.957 5.71 2 15.5 8.332 25 3.043 4.5399 5.582 7.58 8.332 12.5 3.5 6.21 5.8359 17.46 8.3359 20.83 2.6641 3.59 11.418 7.25 16.664 12.5 4.9609 4.96 8.793 14.17 12.5 16.67 5.0039 3.3799 10.793 1.75 16.668 4.1599 1.793 0.75-0.25 3.92 4.168 4.17 11.25 0.57996 20.664 8.83 33.332 16.67 26.332-6.1201 59.957-6.04 91.668-8.3401 6.6641-0.48999 7.125-3.49 12.5-4.1599 23.625-2.8301 47.375 3.5399 66.664 0 10.086-1.8401 20.875-8.4601 29.168-12.5 14.543-2.7101 22.75 8.6299 41.668 4.1599 9.375-2.2 10.25-3.37 29.164 0 11.5 2.05 19.086 10.63 33.336 8.3401 16.207-0.62012 18.25-8.79 37.5-12.5 19.039 9.2899 56.5 33.21 79.164 12.5 5.4609 4.25 15.375 4.08 20.836 8.33 6.707 0.92004 2.043 10.96 4.1641 16.67 0.625 1.71 8.1289 7.2899 8.3359 8.33 1.5 7.75-4.3359 12.58-4.168 20.83 0-0.82996 4.043 1.8401 4.168 4.17 0.53906 10.55-0.75391 20.3 4.1641 29.17 1.2109 2.21 3.918-0.54004 4.168 4.1599 0.58203 10.88 7.832 7.42 8.332 16.67 0.46094 8.67 9.793 1.67 16.668 8.33 2.75 2.67 0.91406 10.3 4.168 12.5 3.8711 0.92004 8.6641-1.1599 12.5 0 4.293 1.3 10.082 2.17 16.664 4.17 1.793 0.54993 4.793 4.17 4.207 4.17 6.8359 0.70996 7.0039-4 12.461-4.17 4.4609-0.12 8.0391 4.21 8.332 4.17 3.418-0.29004 6.9609-3.5901 12.5-4.17 9.2969-0.95007 12.836-0.37 20.836-4.17 2-0.94995-0.41797-3.9099 4.1641-4.1599 5.168-0.29004 7.168-6.3401 12.5-12.5 2.457-2.8301 3.207-8.3401 8.3359-8.3401 8.082 0 0.24609-12.75 4.1641-16.66 0.33594-0.34009 4.043 0.40991 4.168 0 1.043-3.67-1.5-9.04 0-12.5 0.79297-1.8401 3.707 0.12988 4.168-4.17 0.70703-6.7001-3.375-9.54-4.168-16.67-1.582-14.03-2.457-29.28-4.168-45.83 2.9609-15.12 30.375-5.75 45.836-8.33 8.207 3.33 9.375-7.29 12.5-8.3401 5-1.6599 11.625 1.55 16.664 0 1.7109-0.53003 7.332-8.1599 8.3359-8.33 6.707-1.2001 7.1641 3.96 12.5 4.17-12.293 14.13-33.414 19.38-41.668 37.5-7.75 0.57996-13.914 2.75-16.668 8.33-3.8711 4.46-15.375 1.2999-12.5 12.5 10.75 6.71 34.625-2.33 41.668-12.5 3.043 0.29993 2.5 7.38 0 12.5-1.25 2.58-7.332 6.17-8.332 8.33-3.9609 8.38-6.1719 17.5-8.3359 25-3.3711 3.5901-11.418 2.47-12.5 8.3401 1.293 14 13.918 16.63 25 20.83-3.125-15.62 15.918-9.08 16.668-20.83 9.8359 0.079956 12.25-7.17 25-4.17 9.918-12.33 24.625-19.83 37.5-29.17 5-14.33 9.043-27.33 16.668-37.5 26.668-35.53 84.375-40.83 125-62.5 3.3301-7.78 6.96-15.24 8.3301-25 3.1597-12.08 19.75-10.78 16.67-29.16 5.4102-12.62-8.29-7.3401-12.5-12.5-0.5-0.58008 0.62012-3.79 0-4.17-1.54-0.91003-7.2602 1.34-8.3398 0-0.41016-0.5 0.5-3.92 0-4.17-1.5-0.69995-7.3301 1.22-8.3301 0-4.5-5.5-8.5391-1.75-16.668-4.1599-10.336-3.0801-19.582-11.58-41.664-8.3401-6.3789 0.92004-13.129 7.63-20.836 8.3401-7.1641 0.66992-9.082-3.8701-16.664-4.17-9.3359-0.32996-12.836 5.96-29.168 4.17-7.5-0.83008-17.582-3.6201-25-8.3401-6.125-3.9099-22.875-2.74-33.332-8.33-7.875-0.45007-2.8789-13.79-12.5-12.5-0.5-19.33 0.96094-26.33-4.168-41.67-0.5-1.45-3.9609-0.030029-4.168-4.1599-0.33203-6-4.457-27.54-8.332-33.34-5.7891-8.6599-8.75-20.95-8.332-37.495-4.043-0.125-3.2539-5.082-4.168-8.332-14-4.0389-20.793-15.332-29.168-25 10.879-10.375 0.41797-23.707-4.1641-37.5-2.832-8.457-2.0039-18.539-4.168-25-0.5-1.5-3.9609-0.042969-4.168-4.168-0.16406-3.457-5.9141-6.668-4.1641-12.5-12.918-6.5-21.875-17.039-33.336-25-10.996-38.789 23.754-52.875 16.668-100 6.793-11.246 16.293-19.832 29.168-25 4.207-20.039 21.539-27.914 20.832-45.832 0.039063 0.71094-4.0391-1.707-4.168-4.1641-0.41406-8.293-2.1641-12.418-8.332-20.836-7.5391-10.293-24.164-24.582-33.332-37.5-49.125-5.0391-57.918-50.418-104.17-58.332-7.457-17.754-14.957-37.961-25-54.168-1.4141-2.293-3.918 0.625-4.168-4.1639-0.24609-5.0861-8.0391-10.043-12.5-16.668-3.0391-4.543-5.6641-7.543-8.332-12.5-13.625-25.211-42.543-49.625-70.832-66.668 3.875-6.543-3.918-11-4.168-12.5-5.375-30.707 4-66.082 12.5-87.5-4.207-3.125-8.2109-5.125-12.5-8.3319-9.25-6.9181-8.75-9.0391-20.832 0-3.25 2.4569-7.793 3.2069-8.3359 8.3319-8.082-1.25-13.539-4.293-20.832 0-0.25 0.16809 3.918 5.7111 4.168 7.875-0.33594-0.53894-3.793 3.9611-4.207 4.625-0.042969 0.082031-0.042969 0.082031-0.042969 0.082031-2.7539 2.625-10.586 2.879-8.25-0.082031-0.46094 0.58203-8.293 4.0431-8.3359 4.1681-0.875 5.0819 9.168 8.5 0 16.668-22.543-2.4611-30.207-19.793-33.332-41.668-10.082-0.25-11.457-10.418-16.668-16.668-3.9141-4.75-17.582-8.2889-12.5-20.832-2.7891-4-16.871 0.66394-20.832-4.1681-0.16797-0.21094-15.793-13.586-16.668-12.5-9.6641 12.082 5.668-13.625-8.332 0-6.043-1.8319 0.41797-3.6639 0-8.3319-13.793-1.4611-18.082-12.457-25-20.832-6.75-1.168-7.168 3.953-12.5 4.1639 4.668-5.3319 2.2891-5.3319 0-8.3319-1.293-1.6681-6.668-6.9181-8.332-8.332-3.293-2.793-8.707-1.3361-12.5-4.168 0 2.3319-3.375 4.75-4.168 0-12.293-5.75-16.875-19.25-29.168-25-1.625-4.5431-5-10 0-4.1681 12 5.625 16.629 18.586 28.25 24.5-8.7461-9-20.289-24.918-28.25-32.832-6.75-1.1681-7.168 3.9569-12.5 4.168 4.8359-6.168 4.8359-10.504 0-16.668-7.875-3.125-2.875-12.418-12.5-4.1681 4.918-12.582 10.168-24.832 4.168-37.5-10.418-6.0389-16.375-10.082-29.168-4.1639-14.082-13.711-9.957-45.625-25-58.336 1.375-19.414-3.2461-32.875-8.332-45.832-4.8359 0.66406-7.4141-0.91797-8.332-4.168-21.168-5.707-23.25 29.289-37.5 16.668-12.5 2.7461 4 8.9139 0 16.668-0.83594 15.914-10.75 0.082031-16.668 8.332-2.207 3.082 8.25 7.7461 8.332 8.3319 0.71094 5.7501-5.832 9.7501-16.664 8.3361 4.457 1.082 1.375 9.707 4.1641 12.5 5.0039 4.996-2.207 3.2891 0 12.5 0.20703 0.91406 3.9609 0.45312 4.168 4.1641 0.039063 1.125-0.41797 3.168 0 4.168 0.70703 1.75 3.918 16.457 8.332 20.832 0.75391 9.082-3.4141 13.25-12.5 12.5 1.4609 5.457 7.332 6.5391 8.3359 12.5-1.8359 5.125-5.332 8.5431-12.5 8.3361 1.375 14.75 11.457 10.25 4.1641 25 16.125 11.625 34.918 20.664 54.168 29.164 9.5 1.1641 15.664-1 16.668-8.3319 6.25 0.081909 0.41406 5.043 0 4.168 2.75 6.0389 13.875 5.9139 16.664 16.664 9.668 1.332 16-0.66394 20.836-4.1639-7.918 8 5.707 11.578 13.875 18.207-0.45703-0.5-0.91797-1-1.375-1.5431-2.457-2.7889-9.418-8.75-4.168-12.5 0.58203 7.4611 7.4141 6.625 12.5 12.5 12.75 14.668 4.668 12.289-3.832 4.5431 2.5 2.8319 7.793 8.375 8 12.125 0.28906 5.3319 6.957 5.25 8.332 8.3319 3.9609 8.7891-0.039063 6.5 8.332 4.1681-11.168 24.5 11.168-3.2931 0 20.832 2.207 0.79309 5.625-6.168 8.3359-4.1639 0.33203 0.24597-6.625 9.375-4.168 12.5 0.54297 0.70703 7.457-5.918 8.332-4.168 0.66797 1.3319-5.2461 8-4.1641 12.5 0.78906 3.3319 5.375-4.2111 4.2891-4.2111zm66.543-49.957c0.25 2.5391 0.625 4.9181 4.168 4.1681-3.75 11.293-9.3359-9.5431-16.668-8.332-8.793-17.207 5.5 1.582 12.5 4.1639zm-116.54 120.79c5.332 3.871 1.582 2.203 0 0-4.375-3.172-5.207-3.9611-8.332-8.3361-5.332-3.875-1.5859-2.207 0 0 4.3711 3.168 5.207 3.957 8.332 8.3361"/>
   <path d="m905.21 259.62c-3.543 0.75-3.918-1.629-4.168-4.1681-7-2.5819-21.293-21.371-12.5-4.1639 7.332-1.2111 12.918 19.625 16.668 8.332"/>
   <path d="m855.21 222.12c-3.293 0.70691-3.8359-1.3361-4.1289-3.6641-0.32812-0.33594-0.66406-0.66797-0.95703-1.004-11.621-5.9139-16.25-18.875-28.25-24.5-5-5.8319-1.625-0.375 0 4.1681 12.293 5.75 16.875 19.25 29.168 25 0.79297 4.75 4.168 2.3319 4.168 0"/>
   <path d="m851.08 218.45c0.29297 2.328 0.83594 4.371 4.1289 3.6641-1.25-0.96106-2.668-2.2111-4.1289-3.6641"/>
   <path d="m851.04 326.29c1.582 2.203 5.332 3.871 0 0"/>
   <path d="m851.08 218.45c0-0.16797-0.039063-0.33594-0.039063-0.50403-0.28906-0.125-0.625-0.29297-0.91797-0.5 0.29297 0.33606 0.62891 0.66809 0.95703 1.004"/>
   <path d="m851.04 326.29c-3.125-4.379-3.9609-5.168-8.332-8.3361 3.125 4.375 3.957 5.1641 8.332 8.3361"/>
   <path d="m842.71 317.95c-1.5859-2.2069-5.332-3.875 0 0"/>
   <path d="m797.21 247.49c8.5 7.746 16.582 10.125 3.832-4.5431-5.0859-5.875-11.918-5.0389-12.5-12.5-5.25 3.75 1.7109 9.7111 4.168 12.5 0.45703 0.54309 0.91797 1.0431 1.375 1.5431 1.0391 0.78894 2 1.6639 2.7891 2.625 0.085938 0.12097 0.20703 0.25 0.33594 0.375"/>
   <path d="m797.21 247.49c-0.12891-0.125-0.25-0.25403-0.33594-0.375-0.78906-0.96106-1.75-1.8361-2.7891-2.625 1.0391 1.0819 2.082 2.0859 3.125 3"/>
   <path d="m1323.1 153.54c0-54.852-44.465-99.321-99.324-99.321-54.852 0-99.321 44.469-99.321 99.321 0 54.859 44.469 99.324 99.321 99.324 54.859 0 99.324-44.465 99.324-99.324"/>
  </g>
 </g>
</svg>
